<mxfile host="app.diagrams.net" modified="2021-04-01T20:08:46.190Z" agent="5.0 (Windows NT 10.0; Win64; x64) AppleWebKit/537.36 (KHTML, like Gecko) Chrome/89.0.4389.90 Safari/537.36" etag="5UdP6q1ALJR6Ra72NpC7" version="14.5.3" type="github">
  <diagram id="stdUhQEAfxj0wNbAoXbi" name="Page-1">
    <mxGraphModel dx="1102" dy="582" grid="1" gridSize="10" guides="1" tooltips="1" connect="1" arrows="1" fold="1" page="1" pageScale="1" pageWidth="850" pageHeight="1100" math="0" shadow="0">
      <root>
        <mxCell id="0" />
        <mxCell id="1" parent="0" />
        <mxCell id="zb8YCU8-YoxPme7ainJi-1" value="" style="rounded=0;whiteSpace=wrap;html=1;" parent="1" vertex="1">
          <mxGeometry x="40" y="110" width="790" height="320" as="geometry" />
        </mxCell>
        <mxCell id="zb8YCU8-YoxPme7ainJi-2" value="merch controller - stateful component" style="text;html=1;strokeColor=none;fillColor=none;align=center;verticalAlign=middle;whiteSpace=wrap;rounded=0;" parent="1" vertex="1">
          <mxGeometry x="355" y="120" width="160" height="20" as="geometry" />
        </mxCell>
        <mxCell id="zb8YCU8-YoxPme7ainJi-3" value="" style="rounded=0;whiteSpace=wrap;html=1;" parent="1" vertex="1">
          <mxGeometry x="100" y="150" width="160" height="270" as="geometry" />
        </mxCell>
        <mxCell id="zb8YCU8-YoxPme7ainJi-4" value="Merch List" style="text;html=1;strokeColor=none;fillColor=none;align=center;verticalAlign=middle;whiteSpace=wrap;rounded=0;" parent="1" vertex="1">
          <mxGeometry x="130" y="160" width="90" height="20" as="geometry" />
        </mxCell>
        <mxCell id="zb8YCU8-YoxPme7ainJi-5" value="" style="rounded=0;whiteSpace=wrap;html=1;" parent="1" vertex="1">
          <mxGeometry x="310" y="150" width="150" height="270" as="geometry" />
        </mxCell>
        <mxCell id="zb8YCU8-YoxPme7ainJi-6" value="Merch" style="rounded=0;whiteSpace=wrap;html=1;" parent="1" vertex="1">
          <mxGeometry x="120" y="255" width="120" height="15" as="geometry" />
        </mxCell>
        <mxCell id="zb8YCU8-YoxPme7ainJi-7" value="Merch" style="rounded=0;whiteSpace=wrap;html=1;" parent="1" vertex="1">
          <mxGeometry x="120" y="200" width="120" height="20" as="geometry" />
        </mxCell>
        <mxCell id="zb8YCU8-YoxPme7ainJi-8" value="Merch" style="rounded=0;whiteSpace=wrap;html=1;" parent="1" vertex="1">
          <mxGeometry x="120" y="310" width="120" height="20" as="geometry" />
        </mxCell>
        <mxCell id="zb8YCU8-YoxPme7ainJi-9" value="Add Merch Form" style="text;html=1;strokeColor=none;fillColor=none;align=center;verticalAlign=middle;whiteSpace=wrap;rounded=0;" parent="1" vertex="1">
          <mxGeometry x="325" y="150" width="100" height="20" as="geometry" />
        </mxCell>
        <mxCell id="zb8YCU8-YoxPme7ainJi-10" value="" style="rounded=0;whiteSpace=wrap;html=1;" parent="1" vertex="1">
          <mxGeometry x="490" y="150" width="150" height="270" as="geometry" />
        </mxCell>
        <mxCell id="zb8YCU8-YoxPme7ainJi-11" value="Merch Details&lt;br&gt;" style="text;html=1;strokeColor=none;fillColor=none;align=center;verticalAlign=middle;whiteSpace=wrap;rounded=0;" parent="1" vertex="1">
          <mxGeometry x="540" y="160" width="40" height="20" as="geometry" />
        </mxCell>
        <mxCell id="zb8YCU8-YoxPme7ainJi-12" value="" style="rounded=0;whiteSpace=wrap;html=1;" parent="1" vertex="1">
          <mxGeometry x="670" y="150" width="130" height="270" as="geometry" />
        </mxCell>
        <mxCell id="zb8YCU8-YoxPme7ainJi-13" value="Edit Merch" style="text;html=1;strokeColor=none;fillColor=none;align=center;verticalAlign=middle;whiteSpace=wrap;rounded=0;" parent="1" vertex="1">
          <mxGeometry x="705" y="150" width="60" height="20" as="geometry" />
        </mxCell>
        <mxCell id="zb8YCU8-YoxPme7ainJi-14" value="" style="rounded=1;whiteSpace=wrap;html=1;" parent="1" vertex="1">
          <mxGeometry x="325" y="180" width="120" height="230" as="geometry" />
        </mxCell>
        <mxCell id="zb8YCU8-YoxPme7ainJi-15" value="Reusable Form" style="text;html=1;strokeColor=none;fillColor=none;align=center;verticalAlign=middle;whiteSpace=wrap;rounded=0;" parent="1" vertex="1">
          <mxGeometry x="365" y="235" width="40" height="20" as="geometry" />
        </mxCell>
        <mxCell id="zb8YCU8-YoxPme7ainJi-17" value="" style="rounded=1;whiteSpace=wrap;html=1;" parent="1" vertex="1">
          <mxGeometry x="675" y="170" width="120" height="230" as="geometry" />
        </mxCell>
        <mxCell id="zb8YCU8-YoxPme7ainJi-18" value="Reusable Form&lt;br&gt;" style="text;html=1;strokeColor=none;fillColor=none;align=center;verticalAlign=middle;whiteSpace=wrap;rounded=0;" parent="1" vertex="1">
          <mxGeometry x="715" y="210" width="40" height="20" as="geometry" />
        </mxCell>
        <mxCell id="aLGmNxjmz7APoRL6lMkc-1" value="" style="rounded=0;whiteSpace=wrap;html=1;" vertex="1" parent="1">
          <mxGeometry x="40" y="40" width="790" height="60" as="geometry" />
        </mxCell>
        <mxCell id="aLGmNxjmz7APoRL6lMkc-2" value="Header" style="text;html=1;strokeColor=none;fillColor=none;align=center;verticalAlign=middle;whiteSpace=wrap;rounded=0;" vertex="1" parent="1">
          <mxGeometry x="355" y="40" width="140" height="20" as="geometry" />
        </mxCell>
        <mxCell id="aLGmNxjmz7APoRL6lMkc-4" value="StoreCounter" style="rounded=0;whiteSpace=wrap;html=1;" vertex="1" parent="1">
          <mxGeometry x="710" y="50" width="115" height="40" as="geometry" />
        </mxCell>
      </root>
    </mxGraphModel>
  </diagram>
</mxfile>
